<mxfile host="Electron" agent="Mozilla/5.0 (Windows NT 10.0; Win64; x64) AppleWebKit/537.36 (KHTML, like Gecko) draw.io/24.7.8 Chrome/128.0.6613.36 Electron/32.0.1 Safari/537.36" version="24.7.8">
  <diagram name="Seite-1" id="JMKwWKMVg4A7M-iccHE4">
    <mxGraphModel dx="2288" dy="823" grid="1" gridSize="10" guides="1" tooltips="1" connect="1" arrows="1" fold="1" page="1" pageScale="1" pageWidth="827" pageHeight="1169" math="0" shadow="0">
      <root>
        <mxCell id="0" />
        <mxCell id="1" parent="0" />
        <mxCell id="afMsZu6r3bhCWUSse4q3-10" style="edgeStyle=orthogonalEdgeStyle;rounded=0;orthogonalLoop=1;jettySize=auto;html=1;exitX=0;exitY=0.5;exitDx=0;exitDy=0;entryX=0.5;entryY=0;entryDx=0;entryDy=0;" parent="1" source="afMsZu6r3bhCWUSse4q3-2" target="afMsZu6r3bhCWUSse4q3-4" edge="1">
          <mxGeometry relative="1" as="geometry" />
        </mxCell>
        <mxCell id="afMsZu6r3bhCWUSse4q3-11" style="edgeStyle=orthogonalEdgeStyle;rounded=0;orthogonalLoop=1;jettySize=auto;html=1;exitX=0.5;exitY=1;exitDx=0;exitDy=0;entryX=0.5;entryY=0;entryDx=0;entryDy=0;" parent="1" source="afMsZu6r3bhCWUSse4q3-2" target="afMsZu6r3bhCWUSse4q3-6" edge="1">
          <mxGeometry relative="1" as="geometry" />
        </mxCell>
        <mxCell id="afMsZu6r3bhCWUSse4q3-12" style="edgeStyle=orthogonalEdgeStyle;rounded=0;orthogonalLoop=1;jettySize=auto;html=1;exitX=1;exitY=0.5;exitDx=0;exitDy=0;entryX=0.5;entryY=0;entryDx=0;entryDy=0;" parent="1" source="afMsZu6r3bhCWUSse4q3-2" target="afMsZu6r3bhCWUSse4q3-8" edge="1">
          <mxGeometry relative="1" as="geometry" />
        </mxCell>
        <mxCell id="2m1KFlRB2wcplm32hP7O-2" style="edgeStyle=orthogonalEdgeStyle;rounded=0;orthogonalLoop=1;jettySize=auto;html=1;exitX=1;exitY=1;exitDx=0;exitDy=0;entryX=0.5;entryY=0;entryDx=0;entryDy=0;" parent="1" source="afMsZu6r3bhCWUSse4q3-2" target="2m1KFlRB2wcplm32hP7O-1" edge="1">
          <mxGeometry relative="1" as="geometry" />
        </mxCell>
        <mxCell id="afMsZu6r3bhCWUSse4q3-2" value="ServerState" style="rounded=1;whiteSpace=wrap;html=1;" parent="1" vertex="1">
          <mxGeometry x="280" y="140" width="120" height="60" as="geometry" />
        </mxCell>
        <mxCell id="afMsZu6r3bhCWUSse4q3-4" value="Dialogs" style="rounded=1;whiteSpace=wrap;html=1;" parent="1" vertex="1">
          <mxGeometry x="40" y="240" width="120" height="60" as="geometry" />
        </mxCell>
        <mxCell id="afMsZu6r3bhCWUSse4q3-15" style="edgeStyle=orthogonalEdgeStyle;rounded=0;orthogonalLoop=1;jettySize=auto;html=1;exitX=0.5;exitY=1;exitDx=0;exitDy=0;entryX=0.5;entryY=0;entryDx=0;entryDy=0;" parent="1" source="afMsZu6r3bhCWUSse4q3-6" target="afMsZu6r3bhCWUSse4q3-14" edge="1">
          <mxGeometry relative="1" as="geometry" />
        </mxCell>
        <mxCell id="afMsZu6r3bhCWUSse4q3-16" style="edgeStyle=orthogonalEdgeStyle;rounded=0;orthogonalLoop=1;jettySize=auto;html=1;exitX=0.25;exitY=1;exitDx=0;exitDy=0;entryX=0.5;entryY=0;entryDx=0;entryDy=0;" parent="1" source="afMsZu6r3bhCWUSse4q3-6" target="afMsZu6r3bhCWUSse4q3-13" edge="1">
          <mxGeometry relative="1" as="geometry" />
        </mxCell>
        <mxCell id="afMsZu6r3bhCWUSse4q3-6" value="Game" style="rounded=1;whiteSpace=wrap;html=1;" parent="1" vertex="1">
          <mxGeometry x="280" y="240" width="120" height="60" as="geometry" />
        </mxCell>
        <mxCell id="afMsZu6r3bhCWUSse4q3-8" value="Ceremony" style="rounded=1;whiteSpace=wrap;html=1;" parent="1" vertex="1">
          <mxGeometry x="760" y="240" width="120" height="60" as="geometry" />
        </mxCell>
        <mxCell id="afMsZu6r3bhCWUSse4q3-13" value="DetermineStartP&lt;span style=&quot;background-color: initial;&quot;&gt;layer&lt;/span&gt;" style="rounded=1;whiteSpace=wrap;html=1;" parent="1" vertex="1">
          <mxGeometry x="120" y="400" width="120" height="60" as="geometry" />
        </mxCell>
        <mxCell id="bOO3XTlnOS9DM4MqqhhP-6" style="edgeStyle=orthogonalEdgeStyle;rounded=0;orthogonalLoop=1;jettySize=auto;html=1;exitX=0.5;exitY=1;exitDx=0;exitDy=0;entryX=1;entryY=0.5;entryDx=0;entryDy=0;" edge="1" parent="1" source="afMsZu6r3bhCWUSse4q3-14" target="bOO3XTlnOS9DM4MqqhhP-2">
          <mxGeometry relative="1" as="geometry" />
        </mxCell>
        <mxCell id="bOO3XTlnOS9DM4MqqhhP-7" style="edgeStyle=orthogonalEdgeStyle;rounded=0;orthogonalLoop=1;jettySize=auto;html=1;exitX=0.5;exitY=1;exitDx=0;exitDy=0;entryX=1;entryY=0.5;entryDx=0;entryDy=0;" edge="1" parent="1" source="afMsZu6r3bhCWUSse4q3-14" target="bOO3XTlnOS9DM4MqqhhP-3">
          <mxGeometry relative="1" as="geometry" />
        </mxCell>
        <mxCell id="bOO3XTlnOS9DM4MqqhhP-8" style="edgeStyle=orthogonalEdgeStyle;rounded=0;orthogonalLoop=1;jettySize=auto;html=1;exitX=0.5;exitY=1;exitDx=0;exitDy=0;entryX=1;entryY=0.5;entryDx=0;entryDy=0;" edge="1" parent="1" source="afMsZu6r3bhCWUSse4q3-14" target="bOO3XTlnOS9DM4MqqhhP-4">
          <mxGeometry relative="1" as="geometry" />
        </mxCell>
        <mxCell id="bOO3XTlnOS9DM4MqqhhP-9" style="edgeStyle=orthogonalEdgeStyle;rounded=0;orthogonalLoop=1;jettySize=auto;html=1;exitX=0.5;exitY=1;exitDx=0;exitDy=0;entryX=1;entryY=0.5;entryDx=0;entryDy=0;" edge="1" parent="1" source="afMsZu6r3bhCWUSse4q3-14" target="bOO3XTlnOS9DM4MqqhhP-5">
          <mxGeometry relative="1" as="geometry" />
        </mxCell>
        <mxCell id="afMsZu6r3bhCWUSse4q3-14" value="Turn" style="rounded=1;whiteSpace=wrap;html=1;" parent="1" vertex="1">
          <mxGeometry x="280" y="400" width="120" height="60" as="geometry" />
        </mxCell>
        <mxCell id="2m1KFlRB2wcplm32hP7O-1" value="Interrupt" style="rounded=1;whiteSpace=wrap;html=1;" parent="1" vertex="1">
          <mxGeometry x="520" y="240" width="120" height="60" as="geometry" />
        </mxCell>
        <mxCell id="bOO3XTlnOS9DM4MqqhhP-14" style="edgeStyle=orthogonalEdgeStyle;rounded=0;orthogonalLoop=1;jettySize=auto;html=1;exitX=0.5;exitY=1;exitDx=0;exitDy=0;entryX=1;entryY=0.5;entryDx=0;entryDy=0;" edge="1" parent="1" source="bOO3XTlnOS9DM4MqqhhP-2" target="bOO3XTlnOS9DM4MqqhhP-10">
          <mxGeometry relative="1" as="geometry">
            <Array as="points">
              <mxPoint x="220" y="580" />
            </Array>
          </mxGeometry>
        </mxCell>
        <mxCell id="bOO3XTlnOS9DM4MqqhhP-15" style="edgeStyle=orthogonalEdgeStyle;rounded=0;orthogonalLoop=1;jettySize=auto;html=1;exitX=0.5;exitY=1;exitDx=0;exitDy=0;entryX=1;entryY=0.5;entryDx=0;entryDy=0;" edge="1" parent="1" source="bOO3XTlnOS9DM4MqqhhP-2" target="bOO3XTlnOS9DM4MqqhhP-11">
          <mxGeometry relative="1" as="geometry" />
        </mxCell>
        <mxCell id="bOO3XTlnOS9DM4MqqhhP-16" style="edgeStyle=orthogonalEdgeStyle;rounded=0;orthogonalLoop=1;jettySize=auto;html=1;exitX=0.5;exitY=1;exitDx=0;exitDy=0;entryX=1;entryY=0.5;entryDx=0;entryDy=0;" edge="1" parent="1" source="bOO3XTlnOS9DM4MqqhhP-2" target="bOO3XTlnOS9DM4MqqhhP-12">
          <mxGeometry relative="1" as="geometry" />
        </mxCell>
        <mxCell id="bOO3XTlnOS9DM4MqqhhP-2" value="RollDice" style="rounded=1;whiteSpace=wrap;html=1;" vertex="1" parent="1">
          <mxGeometry x="160" y="510" width="120" height="60" as="geometry" />
        </mxCell>
        <mxCell id="bOO3XTlnOS9DM4MqqhhP-3" value="PowerCard" style="rounded=1;whiteSpace=wrap;html=1;" vertex="1" parent="1">
          <mxGeometry x="160" y="810" width="120" height="60" as="geometry" />
        </mxCell>
        <mxCell id="bOO3XTlnOS9DM4MqqhhP-22" style="edgeStyle=orthogonalEdgeStyle;rounded=0;orthogonalLoop=1;jettySize=auto;html=1;exitX=0;exitY=0.5;exitDx=0;exitDy=0;entryX=1;entryY=0.5;entryDx=0;entryDy=0;" edge="1" parent="1" source="bOO3XTlnOS9DM4MqqhhP-4" target="bOO3XTlnOS9DM4MqqhhP-17">
          <mxGeometry relative="1" as="geometry" />
        </mxCell>
        <mxCell id="bOO3XTlnOS9DM4MqqhhP-23" style="edgeStyle=orthogonalEdgeStyle;rounded=0;orthogonalLoop=1;jettySize=auto;html=1;exitX=0;exitY=0.5;exitDx=0;exitDy=0;entryX=1;entryY=0.5;entryDx=0;entryDy=0;" edge="1" parent="1" source="bOO3XTlnOS9DM4MqqhhP-4" target="bOO3XTlnOS9DM4MqqhhP-18">
          <mxGeometry relative="1" as="geometry" />
        </mxCell>
        <mxCell id="bOO3XTlnOS9DM4MqqhhP-24" style="edgeStyle=orthogonalEdgeStyle;rounded=0;orthogonalLoop=1;jettySize=auto;html=1;exitX=0;exitY=0.5;exitDx=0;exitDy=0;entryX=1;entryY=0.5;entryDx=0;entryDy=0;" edge="1" parent="1" source="bOO3XTlnOS9DM4MqqhhP-4" target="bOO3XTlnOS9DM4MqqhhP-19">
          <mxGeometry relative="1" as="geometry" />
        </mxCell>
        <mxCell id="bOO3XTlnOS9DM4MqqhhP-26" style="edgeStyle=orthogonalEdgeStyle;rounded=0;orthogonalLoop=1;jettySize=auto;html=1;exitX=0;exitY=0.5;exitDx=0;exitDy=0;entryX=1;entryY=0.5;entryDx=0;entryDy=0;" edge="1" parent="1" source="bOO3XTlnOS9DM4MqqhhP-4" target="bOO3XTlnOS9DM4MqqhhP-21">
          <mxGeometry relative="1" as="geometry" />
        </mxCell>
        <mxCell id="bOO3XTlnOS9DM4MqqhhP-4" value="ChoosePiece" style="rounded=1;whiteSpace=wrap;html=1;" vertex="1" parent="1">
          <mxGeometry x="160" y="890" width="120" height="60" as="geometry" />
        </mxCell>
        <mxCell id="bOO3XTlnOS9DM4MqqhhP-5" value="MovePiece" style="rounded=1;whiteSpace=wrap;html=1;" vertex="1" parent="1">
          <mxGeometry x="160" y="970" width="120" height="60" as="geometry" />
        </mxCell>
        <mxCell id="bOO3XTlnOS9DM4MqqhhP-10" value="FirstRoll" style="rounded=1;whiteSpace=wrap;html=1;" vertex="1" parent="1">
          <mxGeometry y="550" width="120" height="60" as="geometry" />
        </mxCell>
        <mxCell id="bOO3XTlnOS9DM4MqqhhP-11" value="SecondRoll" style="rounded=1;whiteSpace=wrap;html=1;" vertex="1" parent="1">
          <mxGeometry y="630" width="120" height="60" as="geometry" />
        </mxCell>
        <mxCell id="bOO3XTlnOS9DM4MqqhhP-12" value="ThirdRoll" style="rounded=1;whiteSpace=wrap;html=1;" vertex="1" parent="1">
          <mxGeometry y="710" width="120" height="60" as="geometry" />
        </mxCell>
        <mxCell id="bOO3XTlnOS9DM4MqqhhP-17" value="NoPiece" style="rounded=1;whiteSpace=wrap;html=1;" vertex="1" parent="1">
          <mxGeometry x="-40" y="890" width="120" height="60" as="geometry" />
        </mxCell>
        <mxCell id="bOO3XTlnOS9DM4MqqhhP-18" value="NoTurn" style="rounded=1;whiteSpace=wrap;html=1;" vertex="1" parent="1">
          <mxGeometry x="-40" y="970" width="120" height="60" as="geometry" />
        </mxCell>
        <mxCell id="bOO3XTlnOS9DM4MqqhhP-19" value="WaitingPiece" style="rounded=1;whiteSpace=wrap;html=1;" vertex="1" parent="1">
          <mxGeometry x="-40" y="1050" width="120" height="60" as="geometry" />
        </mxCell>
        <mxCell id="bOO3XTlnOS9DM4MqqhhP-20" value="StartPiece" style="rounded=1;whiteSpace=wrap;html=1;" vertex="1" parent="1">
          <mxGeometry x="-40" y="1130" width="120" height="60" as="geometry" />
        </mxCell>
        <mxCell id="bOO3XTlnOS9DM4MqqhhP-21" value="SelectPiece" style="rounded=1;whiteSpace=wrap;html=1;" vertex="1" parent="1">
          <mxGeometry x="-40" y="1210" width="120" height="60" as="geometry" />
        </mxCell>
        <mxCell id="bOO3XTlnOS9DM4MqqhhP-25" style="edgeStyle=orthogonalEdgeStyle;rounded=0;orthogonalLoop=1;jettySize=auto;html=1;exitX=0;exitY=0.5;exitDx=0;exitDy=0;entryX=0.994;entryY=0.378;entryDx=0;entryDy=0;entryPerimeter=0;" edge="1" parent="1" source="bOO3XTlnOS9DM4MqqhhP-4" target="bOO3XTlnOS9DM4MqqhhP-20">
          <mxGeometry relative="1" as="geometry" />
        </mxCell>
      </root>
    </mxGraphModel>
  </diagram>
</mxfile>
